<?xml version="1.0" encoding="iso-8859-1"?>
<!-- Generator: Adobe Illustrator 18.0.0, SVG Export Plug-In . SVG Version: 6.00 Build 0)  -->
<!DOCTYPE svg PUBLIC "-//W3C//DTD SVG 1.1//EN" "http://www.w3.org/Graphics/SVG/1.1/DTD/svg11.dtd">
<svg version="1.1" id="Capa_1" xmlns="http://www.w3.org/2000/svg" xmlns:xlink="http://www.w3.org/1999/xlink" x="0px" y="0px"
	 viewBox="0 0 427.84 427.84" style="enable-background:new 0 0 427.84 427.84;" xml:space="preserve">
<g>
	<path d="M213.92,0C156.778,0,103.057,22.251,62.654,62.654C22.251,103.057,0,156.778,0,213.92
		c0,117.956,95.964,213.92,213.92,213.92s213.92-95.964,213.92-213.92S331.876,0,213.92,0z M419.79,209.92h-29.72
		c-1.02-45.568-19.42-86.923-48.822-117.68l21.002-21.002C397.03,107.382,418.759,156.16,419.79,209.92z M317.703,281.701
		l-27.873-19.517c4.163-6.525,7.507-13.619,9.889-21.138l32.884,8.811C329.147,261.248,324.093,271.949,317.703,281.701z
		 M213.92,382.12c-3.585,0-7.14-0.126-10.67-0.348l3.156-36.07c2.488,0.14,4.992,0.219,7.514,0.219c2.523,0,5.029-0.078,7.518-0.219
		l3.155,36.07C221.062,381.994,217.506,382.12,213.92,382.12z M103.301,269.911l30.798-14.361
		c3.587,6.854,8.101,13.257,13.446,19.084L123.5,298.678C115.483,290.132,108.659,280.455,103.301,269.911z M90.805,228.702
		l33.911-2.967c1.019,7.809,3.037,15.381,6.006,22.563L99.91,262.666C95.343,252.024,92.227,240.62,90.805,228.702z M89.92,213.92
		c0-9.705,1.123-19.152,3.242-28.221l32.883,8.811c-1.38,6.254-2.115,12.747-2.115,19.41c0,1.287,0.038,2.567,0.091,3.845
		l-33.912,2.967C89.987,218.476,89.92,216.206,89.92,213.92z M110.142,146.132l27.865,19.511c-4.164,6.525-7.509,13.62-9.892,21.139
		l-32.875-8.809C98.696,166.583,103.751,155.883,110.142,146.132z M213.92,45.71c3.585,0,7.14,0.126,10.67,0.348l-3.157,36.08
		c-2.488-0.14-4.992-0.219-7.514-0.219c-2.52,0-5.022,0.078-7.508,0.218l-3.162-36.08C206.78,45.836,210.335,45.71,213.92,45.71z
		 M324.535,157.921l-30.811,14.367c-3.586-6.855-8.075-13.274-13.418-19.102l24.029-24.029
		C312.352,137.703,319.176,147.379,324.535,157.921z M337.034,199.129l-33.923,2.968c-1.019-7.808-3.021-15.385-5.988-22.566
		l30.803-14.364C332.494,175.807,335.611,187.211,337.034,199.129z M213.92,295.9c-21.532,0-41.795-8.241-57.184-23.232
		l-0.788-0.787c-15.488-15.479-24.018-36.063-24.018-57.961c0-45.209,36.78-81.99,81.99-81.99c21.899,0,42.483,8.53,57.96,24.018
		l0.585,0.581c15.118,15.414,23.435,35.763,23.435,57.392C295.9,259.124,259.124,295.9,213.92,295.9z M249.863,332.601
		l-8.812-32.885c7.519-2.383,14.614-5.727,21.139-9.891l19.517,27.873C271.955,324.09,261.254,329.145,249.863,332.601z
		 M213.92,337.92c-2.287,0-4.559-0.067-6.817-0.19l2.968-33.924c1.279,0.053,2.561,0.094,3.849,0.094
		c6.661,0,13.152-0.734,19.404-2.114l8.813,32.892C233.07,336.797,223.624,337.92,213.92,337.92z M165.168,327.927l14.364-30.804
		c7.182,2.968,14.76,4.97,22.569,5.988l-2.968,33.923C187.215,335.612,175.81,332.495,165.168,327.927z M129.157,304.336
		l24.03-24.03c5.829,5.344,12.248,9.833,19.104,13.419l-14.367,30.811C147.38,319.177,137.703,312.353,129.157,304.336z
		 M177.979,95.238l8.809,32.875c-7.519,2.383-14.614,5.727-21.139,9.89l-19.511-27.865
		C155.889,103.748,166.589,98.694,177.979,95.238z M213.92,89.92c2.287,0,4.559,0.067,6.816,0.19l-2.967,33.911
		c-1.279-0.053-2.561-0.092-3.849-0.092c-6.661,0-13.152,0.734-19.404,2.113l-8.811-32.882
		C194.772,91.043,204.217,89.92,213.92,89.92z M262.668,99.911L248.3,130.722c-7.181-2.969-14.752-4.988-22.561-6.007l2.967-33.91
		C240.623,92.228,252.027,95.344,262.668,99.911z M298.678,123.5l-24.044,24.045c-5.826-5.344-12.229-9.858-19.082-13.445
		l14.361-30.797C280.456,108.66,290.132,115.484,298.678,123.5z M304.336,117.842c-3.644-3.431-7.477-6.663-11.491-9.666
		l20.76-29.653c5.731,4.231,11.19,8.809,16.334,13.717L304.336,117.842z M286.293,103.586c-4.175-2.748-8.512-5.267-12.998-7.536
		l15.305-32.821c6.393,3.182,12.557,6.755,18.459,10.695L286.293,103.586z M266.049,92.659c-4.579-1.976-9.292-3.698-14.121-5.153
		l9.379-34.989c6.875,2.022,13.567,4.473,20.048,7.32L266.049,92.659z M244.202,85.43c-4.836-1.14-9.775-2.008-14.799-2.597
		l3.157-36.084c7.15,0.792,14.165,2.034,21.019,3.697L244.202,85.43z M195.279,46.748l3.163,36.084
		c-5.027,0.59-9.969,1.459-14.808,2.599l-9.374-34.986C181.114,48.782,188.129,47.54,195.279,46.748z M166.532,52.517l9.376,34.991
		c-4.827,1.454-9.538,3.176-14.115,5.151l-15.309-32.822C152.965,56.989,159.657,54.539,166.532,52.517z M139.238,63.229
		l15.308,32.821c-4.486,2.269-8.823,4.788-12.998,7.535l-20.77-29.662C126.681,69.983,132.845,66.41,139.238,63.229z M114.233,78.52
		l20.764,29.655c-4.016,3.005-7.851,6.238-11.496,9.671l-25.602-25.61C103.043,87.328,108.502,82.751,114.233,78.52z
		 M139.588,114.731l19.517,27.873c-6.183,4.764-11.732,10.312-16.496,16.495l-27.873-19.517
		C121.805,130.174,130.179,121.8,139.588,114.731z M123.499,309.993c3.644,3.432,7.478,6.665,11.493,9.669l-20.76,29.649
		c-5.731-4.231-11.191-8.808-16.335-13.716L123.499,309.993z M141.545,324.253c4.175,2.748,8.511,5.267,12.997,7.535l-15.302,32.815
		c-6.394-3.181-12.559-6.754-18.461-10.694L141.545,324.253z M161.787,335.179c4.579,1.976,9.291,3.698,14.119,5.153l-9.373,34.982
		c-6.875-2.022-13.567-4.472-20.048-7.319L161.787,335.179z M183.632,342.408c4.838,1.14,9.779,2.009,14.804,2.599l-3.156,36.074
		c-7.15-0.792-14.166-2.034-21.019-3.697L183.632,342.408z M232.563,381.081l-3.155-36.074c5.024-0.59,9.964-1.458,14.801-2.599
		l9.372,34.976C246.727,379.047,239.712,380.289,232.563,381.081z M261.308,375.313l-9.373-34.981
		c4.828-1.455,9.54-3.177,14.119-5.153l15.304,32.813C274.876,370.84,268.184,373.291,261.308,375.313z M288.603,364.599
		L273.3,331.787c4.485-2.269,8.822-4.788,12.996-7.535l20.764,29.654C301.159,357.845,294.995,361.418,288.603,364.599z
		 M313.607,349.308l-20.758-29.646c4.013-3.003,7.846-6.235,11.489-9.666l25.603,25.595
		C324.796,340.499,319.337,345.077,313.607,349.308z M288.257,313.105l-19.523-27.881c6.183-4.764,11.73-10.312,16.494-16.495
		l27.881,19.522C306.041,297.661,297.666,306.036,288.257,313.105z M301.788,233.318c1.379-6.25,2.112-12.74,2.112-19.398
		c0-1.29-0.04-2.573-0.094-3.854l33.923-2.968c0.123,2.259,0.19,4.532,0.19,6.822c0,9.702-1.123,19.146-3.24,28.211L301.788,233.318
		z M345.701,206.401l36.071-3.156c0.222,3.531,0.348,7.088,0.348,10.675c0,3.583-0.126,7.137-0.348,10.665l-36.071-3.154
		c0.14-2.487,0.218-4.99,0.218-7.511C345.92,211.396,345.842,208.891,345.701,206.401z M345.006,198.431
		c-0.59-5.023-1.458-9.962-2.598-14.797l34.976-9.377c1.663,6.854,2.905,13.869,3.697,21.019L345.006,198.431z M340.332,175.907
		c-1.455-4.829-3.177-9.543-5.154-14.123l32.816-15.302c2.847,6.48,5.297,13.172,7.319,20.047L340.332,175.907z M331.787,154.54
		c-2.269-4.486-4.789-8.824-7.537-12.999l29.659-20.764c3.939,5.902,7.513,12.067,10.694,18.46L331.787,154.54z M319.659,134.989
		c-3.004-4.014-6.235-7.846-9.666-11.489l25.603-25.603c4.907,5.144,9.484,10.603,13.714,16.334L319.659,134.989z M335.59,86.583
		c-30.755-29.402-72.106-47.801-117.67-48.822V8.051c53.755,1.03,102.53,22.755,138.672,57.53L335.59,86.583z M209.92,37.761
		c-45.568,1.021-86.922,19.42-117.679,48.823L71.243,65.586C107.386,30.809,156.163,9.081,209.92,8.051V37.761z M92.241,97.893
		l25.602,25.61c-3.43,3.643-6.661,7.475-9.665,11.488l-29.654-20.764C82.755,108.496,87.334,103.037,92.241,97.893z M73.926,120.774
		l29.663,20.77c-2.747,4.174-5.266,8.51-7.535,12.995L63.232,139.23C66.414,132.838,69.987,126.674,73.926,120.774z M59.84,146.476
		l32.822,15.308c-1.976,4.579-3.698,9.291-5.153,14.118l-34.991-9.376C54.541,159.65,56.992,152.957,59.84,146.476z M50.447,174.253
		l34.986,9.375c-1.141,4.839-2.01,9.781-2.6,14.808l-36.084-3.163C47.541,188.122,48.784,181.107,50.447,174.253z M82.138,206.406
		c-0.14,2.488-0.219,4.992-0.219,7.514c0,2.521,0.078,5.023,0.218,7.509l-36.08,3.156c-0.222-3.528-0.348-7.082-0.348-10.666
		c0-3.587,0.126-7.145,0.349-10.677L82.138,206.406z M82.832,229.399c0.59,5.026,1.458,9.967,2.598,14.805l-34.986,9.371
		c-1.663-6.854-2.905-13.869-3.697-21.019L82.832,229.399z M87.507,251.93c1.454,4.827,3.176,9.539,5.152,14.117l-32.822,15.305
		c-2.848-6.481-5.299-13.174-7.321-20.05L87.507,251.93z M96.049,273.293c2.268,4.485,4.787,8.822,7.534,12.996l-29.66,20.768
		c-3.94-5.901-7.513-12.066-10.694-18.459L96.049,273.293z M108.173,292.842c3.004,4.015,6.237,7.849,9.669,11.494l-25.603,25.603
		c-4.908-5.145-9.487-10.604-13.718-16.335L108.173,292.842z M92.24,341.247c30.757,29.402,72.112,47.801,117.68,48.822v29.72
		c-53.76-1.03-102.538-22.76-138.682-57.54L92.24,341.247z M217.92,390.069c45.565-1.02,86.917-19.419,117.672-48.82l21.005,21.006
		c-36.143,34.777-84.92,56.505-138.677,57.535V390.069z M335.598,329.935l-25.603-25.595c3.433-3.646,6.667-7.481,9.672-11.497
		l29.646,20.758C345.082,319.331,340.504,324.791,335.598,329.935z M353.91,307.054l-29.654-20.764
		c2.748-4.175,5.267-8.513,7.535-12.999l32.812,15.304C361.422,294.988,357.85,301.153,353.91,307.054z M367.995,281.35
		l-32.813-15.304c1.976-4.578,3.697-9.29,5.151-14.117l34.981,9.373C373.293,268.177,370.843,274.869,367.995,281.35z
		 M377.386,253.575l-34.976-9.372c1.14-4.837,2.008-9.777,2.598-14.801l36.075,3.154
		C380.291,239.706,379.049,246.721,377.386,253.575z M65.586,71.243l20.998,20.998c-29.403,30.757-47.803,72.111-48.823,117.679
		H8.051C9.081,156.163,30.808,107.386,65.586,71.243z M8.051,217.92h29.71c1.021,45.564,19.42,86.915,48.822,117.67l-21.002,21.002
		C30.806,320.449,9.081,271.675,8.051,217.92z M362.254,356.597l-21.005-21.006c29.401-30.755,47.8-72.107,48.82-117.671h29.72
		C418.759,271.678,397.032,320.454,362.254,356.597z"/>
	<path d="M251.479,189.361c3.472,0,6.737-1.352,9.192-3.807c5.068-5.069,5.068-13.316,0-18.385c-2.456-2.455-5.72-3.807-9.192-3.807
		c-3.473,0-6.737,1.352-9.193,3.807c-4.081,4.082-4.87,10.222-2.379,15.107l-20.072,20.072c-1.81-0.927-3.823-1.427-5.916-1.427
		c-2.093,0-4.106,0.499-5.916,1.427l-20.072-20.072c2.492-4.885,1.703-11.025-2.379-15.107c-2.456-2.455-5.72-3.807-9.192-3.807
		s-6.737,1.352-9.192,3.807c-5.068,5.069-5.068,13.316,0,18.385c2.456,2.455,5.72,3.807,9.192,3.807
		c2.092,0,4.106-0.499,5.916-1.427l20.072,20.072c-1.889,3.703-1.889,8.125,0,11.828l-20.073,20.073
		c-1.81-0.927-3.823-1.427-5.916-1.427c-3.472,0-6.737,1.352-9.192,3.807c-5.068,5.069-5.068,13.316,0,18.384
		c2.456,2.456,5.72,3.808,9.192,3.808s6.737-1.352,9.193-3.808c4.081-4.082,4.87-10.222,2.378-15.106l20.072-20.073
		c1.81,0.928,3.823,1.427,5.916,1.427c2.092,0,4.106-0.5,5.916-1.427l20.072,20.072c-2.492,4.884-1.703,11.025,2.378,15.106
		c2.456,2.456,5.72,3.808,9.193,3.808c3.472,0,6.737-1.352,9.192-3.808c5.068-5.069,5.068-13.316,0-18.385
		c-2.456-2.455-5.72-3.807-9.192-3.807c-2.093,0-4.106,0.499-5.916,1.427l-20.072-20.072c1.889-3.703,1.889-8.125,0-11.828
		l20.072-20.072C247.374,188.861,249.387,189.361,251.479,189.361z M247.944,172.825c0.944-0.944,2.2-1.464,3.536-1.464
		c1.335,0,2.591,0.52,3.535,1.464c1.95,1.949,1.95,5.122,0,7.071c-0.944,0.944-2.2,1.464-3.535,1.464
		c-1.336,0-2.591-0.52-3.536-1.464C245.994,177.947,245.994,174.775,247.944,172.825z M172.826,179.896
		c-1.95-1.949-1.95-5.122,0-7.071c0.944-0.944,2.2-1.464,3.535-1.464s2.591,0.52,3.536,1.464c1.95,1.949,1.95,5.122,0,7.071
		c-0.945,0.944-2.201,1.464-3.536,1.464S173.77,180.841,172.826,179.896z M179.896,255.014c-0.944,0.945-2.2,1.465-3.536,1.465
		s-2.591-0.52-3.535-1.465c-1.95-1.949-1.95-5.121,0-7.07c0.944-0.944,2.2-1.464,3.535-1.464s2.591,0.52,3.536,1.464
		C181.846,249.893,181.846,253.065,179.896,255.014z M210.385,217.455c-1.95-1.949-1.95-5.122,0-7.071
		c0.944-0.944,2.2-1.464,3.536-1.464c1.335,0,2.591,0.52,3.535,1.464c1.95,1.95,1.95,5.122,0,7.071
		c-0.944,0.944-2.2,1.465-3.535,1.465C212.584,218.92,211.329,218.4,210.385,217.455z M255.015,247.944
		c1.95,1.949,1.95,5.121,0,7.071c-0.944,0.944-2.2,1.464-3.535,1.464c-1.336,0-2.591-0.52-3.536-1.465
		c-1.95-1.949-1.95-5.121,0-7.07c0.944-0.944,2.2-1.464,3.536-1.464C252.815,246.48,254.07,247,255.015,247.944z"/>
</g>
<g>
</g>
<g>
</g>
<g>
</g>
<g>
</g>
<g>
</g>
<g>
</g>
<g>
</g>
<g>
</g>
<g>
</g>
<g>
</g>
<g>
</g>
<g>
</g>
<g>
</g>
<g>
</g>
<g>
</g>
</svg>
