<?xml version="1.0" encoding="iso-8859-1"?>
<!-- Generator: Adobe Illustrator 17.1.0, SVG Export Plug-In . SVG Version: 6.00 Build 0)  -->
<!DOCTYPE svg PUBLIC "-//W3C//DTD SVG 1.1//EN" "http://www.w3.org/Graphics/SVG/1.1/DTD/svg11.dtd">
<svg version="1.1" id="Capa_1" xmlns="http://www.w3.org/2000/svg" xmlns:xlink="http://www.w3.org/1999/xlink" x="0px" y="0px"
	 viewBox="0 0 512.103 512.103" style="enable-background:new 0 0 512.103 512.103;" xml:space="preserve">
<g>
	<path d="M84.103,406.984c-1.738-4.54-3.094-9.169-4.029-13.759c-0.881-4.329-5.103-7.123-9.436-6.242
		c-4.329,0.882-7.124,5.106-6.242,9.436c1.11,5.449,2.713,10.928,4.766,16.287c5.141,13.424,11.974,24.872,20.309,34.026
		c1.579,1.734,3.744,2.614,5.918,2.614c1.922,0,3.85-0.688,5.383-2.084c3.267-2.975,3.504-8.034,0.53-11.301
		C94.315,428.288,88.528,418.538,84.103,406.984z"/>
	<path d="M232.099,362.625c2.154,1.756,4.046,3.971,5.625,6.584c1.503,2.488,4.146,3.864,6.855,3.864
		c1.409,0,2.835-0.372,4.129-1.154c3.782-2.285,4.995-7.203,2.71-10.984c-2.531-4.188-5.629-7.792-9.21-10.711
		c-3.425-2.792-8.464-2.279-11.255,1.146C228.161,354.794,228.674,359.833,232.099,362.625z"/>
	<path d="M251.465,390.294c-4.388-0.566-8.391,2.532-8.955,6.915c-1.779,13.84-8.591,27.188-19.699,38.601
		c-3.082,3.166-3.013,8.231,0.153,11.313c1.555,1.514,3.568,2.267,5.579,2.267c2.083,0,4.165-0.809,5.733-2.42
		c13.543-13.915,21.878-30.417,24.102-47.72C258.943,394.866,255.847,390.857,251.465,390.294z"/>
	<path d="M450.384,294.846c-19.087-19.101-43.706-28.659-67.544-26.236c-24.095,2.454-39.953,16.245-53.943,28.413
		c-2.989,2.599-5.897,5.123-8.77,7.432c-21.517-23.983-37.244-62.186-43.515-106.183c-6.998-49.094-1.674-98.564,14.99-139.297
		c0.278-0.679,0.446-1.373,0.531-2.068c10.194-17.834,22.297-31.096,37.678-37.138c22.03-8.655,50.283-2.427,86.371,19.039
		c3.798,2.26,8.708,1.011,10.965-2.786c2.259-3.797,1.011-8.707-2.786-10.965c-40.621-24.16-73.46-30.761-100.4-20.18
		c-46.09,18.104-65.116,82.894-85.26,151.487c-15.707,53.485-31.934,108.718-61.394,145.005c-5.26-1.932-10.766-4.648-16.517-7.493
		c-16.657-8.237-35.536-17.575-59.376-13.812c-23.405,3.694-44.497,19.074-57.867,42.196
		c-17.159,29.676-19.188,67.095-5.565,102.663c24.505,63.982,73.809,77.344,90.011,81.735h0c6.979,1.891,20.092,5.445,36.992,5.445
		c22.353,0,51.325-6.223,81.45-30.742c3.341-2.719,6.511-5.568,9.52-8.523c10.953,10.87,24.055,19.754,39.073,26.453
		c18.973,8.465,37.852,12.718,56.352,12.718c6.381,0,12.721-0.507,19-1.521c20.421-3.298,36.085-11.31,46.091-17.049
		c14.569-8.357,58.904-33.788,65.865-101.638C486.178,354.35,474.532,319.011,450.384,294.846z M254.053,160.871
		c1.224-4.169,2.444-8.322,3.666-12.45c-0.431,17.189,0.569,34.679,3.054,52.108c6.544,45.916,23.036,86.288,45.774,112.703
		c-5.173,2.431-11.117,4.452-17.345,6.558c-7.041,2.381-14.271,4.842-21.435,8.179c-1.467-1.419-2.989-2.781-4.573-4.072
		c-18.773-15.303-39.738-16.764-58.234-18.053c-3.524-0.246-6.957-0.491-10.26-0.823
		C223.01,266.554,238.771,212.909,254.053,160.871z M236.336,468.952c-46.537,37.876-89.906,26.124-104.158,22.262h0
		c-14.261-3.865-57.658-15.625-79.255-72.015c-11.888-31.04-10.257-63.454,4.475-88.931c10.943-18.924,27.895-31.463,46.51-34.401
		c18.814-2.969,34.561,4.818,49.789,12.35c8.207,4.059,15.96,7.891,24.113,10.111c0.051,0.014,0.103,0.028,0.154,0.042
		c8.158,2.2,16.768,2.801,25.881,3.436c16.911,1.179,34.398,2.397,49.237,14.493c2.449,1.997,4.708,4.218,6.802,6.605
		c0.032,0.039,0.067,0.074,0.1,0.112c10.521,12.052,16.422,28.738,16.415,47.188c-0.009,23.411-9.322,46.417-26.02,65.285
		c-0.299,0.293-0.575,0.6-0.818,0.927C245.557,460.846,241.141,465.041,236.336,468.952z M466.42,390.169
		c-6.124,59.688-45.101,82.045-57.91,89.392c-12.816,7.351-51.817,29.722-106.963,5.119c-13.482-6.015-25.176-13.986-34.861-23.734
		c16.551-20.778,25.706-45.498,25.715-70.736c0.007-18.462-4.97-35.597-14.053-49.43c5.258-2.201,10.675-4.04,15.979-5.833
		c8.699-2.942,16.917-5.721,24.269-9.938c7.354-4.218,13.886-9.899,20.801-15.914c12.792-11.125,26.019-22.628,45.064-24.568
		c19.033-1.939,38.934,5.945,54.604,21.628C459.798,326.903,469.768,357.525,466.42,390.169z"/>
	<path d="M347.607,462.326c-10.367-0.486-21.352-3.289-32.651-8.33c-4.438-1.979-8.67-4.294-12.579-6.88
		c-3.684-2.437-8.648-1.425-11.086,2.26c-2.437,3.685-1.425,8.648,2.26,11.086c4.64,3.069,9.648,5.81,14.887,8.146
		c13.127,5.857,26.053,9.121,38.42,9.7c0.127,0.006,0.254,0.009,0.381,0.009c4.246,0,7.784-3.339,7.985-7.625
		C355.431,466.278,352.021,462.533,347.607,462.326z"/>
	<path d="M421.496,323.851c-3.497,2.701-4.143,7.725-1.442,11.222c8.528,11.044,13.15,25.299,13.366,41.224
		c0.059,4.381,3.629,7.892,7.997,7.892c0.037,0,0.074,0,0.111-0.001c4.418-0.06,7.951-3.689,7.891-8.107
		c-0.263-19.417-6.038-36.978-16.7-50.786C430.017,321.797,424.994,321.151,421.496,323.851z"/>
	<path d="M400.704,303.124c-4.751-1.172-9.491-1.529-14.086-1.062c-4.396,0.448-7.596,4.374-7.148,8.77
		c0.448,4.396,4.368,7.589,8.77,7.148c2.765-0.284,5.668-0.054,8.632,0.678c0.644,0.159,1.288,0.235,1.923,0.235
		c3.594,0,6.861-2.439,7.761-6.085C407.613,308.518,404.993,304.183,400.704,303.124z"/>
</g>
<g>
</g>
<g>
</g>
<g>
</g>
<g>
</g>
<g>
</g>
<g>
</g>
<g>
</g>
<g>
</g>
<g>
</g>
<g>
</g>
<g>
</g>
<g>
</g>
<g>
</g>
<g>
</g>
<g>
</g>
</svg>
