<svg xmlns="http://www.w3.org/2000/svg" viewBox="0 0 204.77 66.3"><defs><style>.cls-1{fill:#053479;}.cls-2{fill:#bfbfbf;}.cls-3{fill:#fff;}</style></defs><title>gambleaware</title><g id="Layer_2" data-name="Layer 2"><g id="Layer_1-2" data-name="Layer 1"><rect class="cls-1" width="204.77" height="66.3" rx="12" ry="12"/><path class="cls-2" d="M16.91,33.6c0,2.77,1.21,4.33,3.41,4.33s3.58-1.85,3.58-4.45-1.42-4.31-3.32-4.31c-2.22,0-3.67,1.73-3.67,4.42m7,5.2a5.72,5.72,0,0,1-4.68,2.28c-3.64,0-6.24-3.15-6.24-7.54S15.61,26,19.45,26c1.47,0,2.69.55,4.42,2V26.29H29.1v3H27.68V41.2c0,3.7-2.77,5.89-7.43,5.89A7.88,7.88,0,0,1,15,45.5a5.29,5.29,0,0,1-1.85-3.38h3.73c.52,1.42,1.53,2,3.35,2,2.22,0,3.67-1.16,3.67-2.89Z"/><path class="cls-2" d="M39.83,34.44c-3.64.35-6,.67-6,2.8,0,1.27,1,2.11,2.54,2.11a3.37,3.37,0,0,0,3.46-3.41Zm3.61,4.31h1.33v3H40V39.92a5.85,5.85,0,0,1-4.67,2.14c-3.09,0-5.46-2.08-5.46-4.82,0-4.54,5.12-5,10-5.49,0-2.37-.6-3-2.86-3a2.5,2.5,0,0,0-2.77,2.34L30.5,31c.2-3.09,2.69-5.09,6.36-5.09,4.27,0,6.58,1.94,6.58,5.46Z"/><path class="cls-2" d="M50.9,28.11c1.65-1.74,2.66-2.23,4.42-2.23s2.71.64,3.7,2.4a6.22,6.22,0,0,1,4.68-2.4,4.07,4.07,0,0,1,4.19,4.39v8.46h1.44v3H64.1V31.35c0-1.36-.64-2.17-1.65-2.17-1.59,0-3.06,2-3.06,4.19v5.37h1.5v3H55.61V31.49c0-1.56-.52-2.31-1.62-2.31-1.7,0-3.15,2.08-3.09,4.54v5h1.5v3H45.82v-3h1.3V29.3H45.79v-3H50.9Z"/><path class="cls-2" d="M75.4,34.06c0,3.15,1.3,4.85,3.72,4.85,2.14,0,3.5-1.93,3.5-4.94S81.29,29,79.13,29c-2.37,0-3.72,1.85-3.72,5M70.26,20.43h5.26V28c1.53-1.56,2.74-2.17,4.39-2.17,3.87,0,6.67,3.32,6.67,8,0,5-2.6,8.29-6.47,8.29-1.91,0-3-.46-4.77-2.05v1.68H70.12v-3h1.62V23.44H70.26v-3Z"/><polygon class="cls-2" points="87.39 20.43 92.67 20.43 92.67 38.74 94.15 38.74 94.15 41.75 87.39 41.75 87.39 38.74 88.89 38.74 88.89 23.44 87.39 23.44 87.39 20.43"/><path class="cls-2" d="M105.46,32.1a3.11,3.11,0,0,0-3.26-3,3.6,3.6,0,0,0-3.46,3Zm4,4.56c-.69,3.35-3.5,5.43-7.25,5.43-4.33,0-7.51-3.38-7.51-8.12s3.21-8.15,7.54-8.15A7,7,0,0,1,108.15,29a10.39,10.39,0,0,1,1.53,5.78H98.53c.38,4,3,4.22,3.72,4.22a3.12,3.12,0,0,0,3.15-2.31h4Z"/><path class="cls-3" d="M120.85,33.89l-1.36.2c-2.83.43-4,.84-4.79,1.62a2.28,2.28,0,0,0-.66,1.47,2.67,2.67,0,0,0,2.68,2.63A4.23,4.23,0,0,0,120.85,36V33.89Zm0,5.78c-1.39,1.24-2.72,2.43-5.2,2.43a4.69,4.69,0,0,1-5-4.65,4.3,4.3,0,0,1,1.15-3c1.18-1.21,2.89-1.76,7-2.22l2-.23V31c0-1.79-1.16-2.77-3.27-2.77-1.93,0-2.83.72-3.18,2.57H111.2a4.78,4.78,0,0,1,1.5-3.29,7.36,7.36,0,0,1,5.09-1.62c3.84,0,6.09,1.91,6.09,5.14v8.27h1.85v2.45h-4.85Z"/><polygon class="cls-3" points="125.47 26.23 131.42 26.23 131.42 28.69 129.69 28.69 132.23 39.18 135.21 26.23 138.15 26.23 141.1 39.18 143.64 28.69 141.93 28.69 141.93 26.23 147.79 26.23 147.79 28.69 146.29 28.69 142.74 41.75 139.48 41.75 136.65 30.13 133.87 41.75 130.58 41.75 126.97 28.69 125.47 28.69 125.47 26.23"/><path class="cls-3" d="M158.62,33.89l-1.36.2c-2.83.43-4,.84-4.8,1.62a2.29,2.29,0,0,0-.67,1.47,2.67,2.67,0,0,0,2.69,2.63A4.22,4.22,0,0,0,158.62,36V33.89Zm0,5.78c-1.38,1.24-2.71,2.43-5.2,2.43a4.7,4.7,0,0,1-5-4.65,4.3,4.3,0,0,1,1.16-3c1.18-1.21,2.89-1.76,7-2.22l2-.23V31c0-1.79-1.16-2.77-3.26-2.77-1.94,0-2.83.72-3.18,2.57H149a4.78,4.78,0,0,1,1.5-3.29,7.35,7.35,0,0,1,5.08-1.62c3.84,0,6.1,1.91,6.1,5.14v8.27h1.85v2.45h-4.85Z"/><path class="cls-3" d="M169.33,29.7c.84-1.85,1.79-3.82,4.51-3.82a5.73,5.73,0,0,1,1.48.2V29a6.12,6.12,0,0,0-1.5-.23c-3.46,0-4.48,3.44-4.48,4.62v5.9h1.76v2.45h-6.59V39.29h1.79V28.69h-1.73V26.23h4.77V29.7Z"/><path class="cls-3" d="M186.51,32.45c-.14-2.57-1.36-4-3.5-4-3.21,0-4.13,3.53-4.13,4ZM189.66,37c-.61,1.56-2.23,5.12-6.67,5.12s-7.37-3.35-7.37-8.26c0-4.59,3.15-7.95,7.45-7.95,2.51,0,6.84,1.42,6.84,8.72H178.77c.14,3.49,2.31,4.88,4.39,4.88,1.62,0,2.6-.78,3.18-2.52Z"/></g></g></svg>